# xmcd
# 
# Track frame offsets:
#     150
#     30924
#     45905
#     56313
#     81736
#     101275
#     116661
#     132904
#     156903
#     168890
# 
# Disc length: 2531
# 
# Revision: 13
# Processed by: cddbd v1.5.2PL0 Copyright (c) Steve Scherf et al.
# Submitted via: fre:ac v1.0.31
# 
DISCID=7109e10a
DTITLE=Bruce Springsteen - Lost Sessions Disc 1
DYEAR=2010
DGENRE=Rock/Pop
TTITLE0=Racing In The Street
TTITLE1=Gotta Get That Feeling
TTITLE2=Outside Looking In
TTITLE3=Someday (We'll Be Together)
TTITLE4=One Way Street
TTITLE5=Because The Night
TTITLE6=Wrong Side Of The Street
TTITLE7=The Brokenhearted
TTITLE8=Rendezvous
TTITLE9=Candy's Boy
EXTD=
EXTT0=
EXTT1=
EXTT2=
EXTT3=
EXTT4=
EXTT5=
EXTT6=
EXTT7=
EXTT8=
EXTT9=
PLAYORDER=
